# xmcd
#
# Track frame offsets:
#	150
#	24445
#	47005
#	63542
#	83387
#	100130
#	126315
#	141632
#	172092
#	191275
#	208835
#	221187
#
# Disc length: 3254 seconds
#
# Revision: 0
# Processed by: cddbd v1.4PL0 Copyright (c) Steve Scherf et al.
# Submitted via: dBpowerAMP V4.0
#
DISCID=b30cb40c
DTITLE=Shane Henry Band  - You're Coming Home
DYEAR=2002
DGENRE=Blues
TTITLE0=Runnin' Out Of Time
TTITLE1=In The Blues 
TTITLE2=So In Love With You
TTITLE3=Why 
TTITLE4=I Won't Be Waiting All My Life 
TTITLE5=Just Too Late 
TTITLE6=You're Comin' Home
TTITLE7=Cold, Cold, Feeling 
TTITLE8=Same Old Blues 
TTITLE9=Four Dollars
TTITLE10=Losing The Blues 
TTITLE11=Falling In Love Again 
EXTD=
EXTT0=
EXTT1=
EXTT2=
EXTT3=
EXTT4=
EXTT5=
EXTT6=
EXTT7=
EXTT8=
EXTT9=
EXTT10=
EXTT11=
PLAYORDER=
